<mxfile host="Electron" modified="2024-05-13T13:12:37.038Z" agent="Mozilla/5.0 (Windows NT 10.0; Win64; x64) AppleWebKit/537.36 (KHTML, like Gecko) draw.io/24.2.5 Chrome/120.0.6099.109 Electron/28.1.0 Safari/537.36" etag="p1PzrOFYuA8-sSSgw519" version="24.2.5" type="device">
  <diagram name="Page-1" id="74e2e168-ea6b-b213-b513-2b3c1d86103e">
    <mxGraphModel dx="2388" dy="1372" grid="0" gridSize="10" guides="1" tooltips="1" connect="1" arrows="1" fold="1" page="1" pageScale="1" pageWidth="4681" pageHeight="3300" background="none" math="0" shadow="0">
      <root>
        <mxCell id="0" />
        <mxCell id="1" parent="0" />
        <mxCell id="-BsYHrq-ux0a8azyBXrp-186" value="" style="endArrow=none;dashed=1;html=1;dashPattern=1 3;strokeWidth=1;rounded=0;fontStyle=1;strokeColor=#2A2B2C;entryX=0.5;entryY=1;entryDx=0;entryDy=0;exitX=0.5;exitY=0;exitDx=0;exitDy=0;" edge="1" parent="1" source="uO17ehAxNxv0Zf3d8ahg-317">
          <mxGeometry width="50" height="50" relative="1" as="geometry">
            <mxPoint x="2067" y="1064" as="sourcePoint" />
            <mxPoint x="2064.98" y="1250" as="targetPoint" />
          </mxGeometry>
        </mxCell>
        <mxCell id="-BsYHrq-ux0a8azyBXrp-183" value="" style="endArrow=none;dashed=1;html=1;dashPattern=1 3;strokeWidth=1;rounded=0;fontStyle=1;strokeColor=#2A2B2C;exitX=0.5;exitY=1;exitDx=0;exitDy=0;entryX=0.5;entryY=1;entryDx=0;entryDy=0;" edge="1" parent="1" target="uO17ehAxNxv0Zf3d8ahg-404">
          <mxGeometry width="50" height="50" relative="1" as="geometry">
            <mxPoint x="2355.02" y="660" as="sourcePoint" />
            <mxPoint x="2355.98" y="950" as="targetPoint" />
          </mxGeometry>
        </mxCell>
        <mxCell id="-BsYHrq-ux0a8azyBXrp-184" value="" style="endArrow=none;dashed=1;html=1;dashPattern=1 3;strokeWidth=1;rounded=0;fontStyle=1;strokeColor=#2A2B2C;exitX=0.5;exitY=1;exitDx=0;exitDy=0;" edge="1" parent="1">
          <mxGeometry width="50" height="50" relative="1" as="geometry">
            <mxPoint x="2415.0099999999998" y="658.5" as="sourcePoint" />
            <mxPoint x="2415.99" y="801.5" as="targetPoint" />
          </mxGeometry>
        </mxCell>
        <mxCell id="-BsYHrq-ux0a8azyBXrp-185" value="" style="endArrow=none;dashed=1;html=1;dashPattern=1 3;strokeWidth=1;rounded=0;fontStyle=1;strokeColor=#2A2B2C;exitX=0.5;exitY=1;exitDx=0;exitDy=0;entryX=0.5;entryY=1;entryDx=0;entryDy=0;" edge="1" parent="1" target="uO17ehAxNxv0Zf3d8ahg-416">
          <mxGeometry width="50" height="50" relative="1" as="geometry">
            <mxPoint x="2595.02" y="710" as="sourcePoint" />
            <mxPoint x="2595.98" y="1000" as="targetPoint" />
          </mxGeometry>
        </mxCell>
        <mxCell id="-BsYHrq-ux0a8azyBXrp-182" value="" style="endArrow=none;dashed=1;html=1;dashPattern=1 3;strokeWidth=1;rounded=0;fontStyle=1;strokeColor=#2A2B2C;exitX=0.5;exitY=1;exitDx=0;exitDy=0;entryX=0.5;entryY=1;entryDx=0;entryDy=0;" edge="1" parent="1" target="uO17ehAxNxv0Zf3d8ahg-393">
          <mxGeometry width="50" height="50" relative="1" as="geometry">
            <mxPoint x="2295.04" y="610" as="sourcePoint" />
            <mxPoint x="2295.97" y="750" as="targetPoint" />
          </mxGeometry>
        </mxCell>
        <mxCell id="-BsYHrq-ux0a8azyBXrp-181" value="" style="endArrow=none;dashed=1;html=1;dashPattern=1 3;strokeWidth=1;rounded=0;fontStyle=1;strokeColor=#2A2B2C;exitX=0.5;exitY=1;exitDx=0;exitDy=0;entryX=0.5;entryY=1;entryDx=0;entryDy=0;" edge="1" parent="1" target="uO17ehAxNxv0Zf3d8ahg-392">
          <mxGeometry width="50" height="50" relative="1" as="geometry">
            <mxPoint x="2235.07" y="560" as="sourcePoint" />
            <mxPoint x="2235.94" y="694" as="targetPoint" />
          </mxGeometry>
        </mxCell>
        <mxCell id="-BsYHrq-ux0a8azyBXrp-180" value="" style="endArrow=none;dashed=1;html=1;dashPattern=1 3;strokeWidth=1;rounded=0;fontStyle=1;strokeColor=#2A2B2C;exitX=0.5;exitY=1;exitDx=0;exitDy=0;entryX=0.5;entryY=1;entryDx=0;entryDy=0;" edge="1" parent="1" target="uO17ehAxNxv0Zf3d8ahg-384">
          <mxGeometry width="50" height="50" relative="1" as="geometry">
            <mxPoint x="2004.25" y="710" as="sourcePoint" />
            <mxPoint x="2016" y="1106" as="targetPoint" />
          </mxGeometry>
        </mxCell>
        <mxCell id="-BsYHrq-ux0a8azyBXrp-179" value="" style="endArrow=none;dashed=1;html=1;dashPattern=1 3;strokeWidth=1;rounded=0;fontStyle=1;strokeColor=#2A2B2C;entryX=0.5;entryY=1;entryDx=0;entryDy=0;exitX=0.5;exitY=1;exitDx=0;exitDy=0;" edge="1" parent="1">
          <mxGeometry width="50" height="50" relative="1" as="geometry">
            <mxPoint x="1944.16" y="700" as="sourcePoint" />
            <mxPoint x="1944.66" y="1250" as="targetPoint" />
          </mxGeometry>
        </mxCell>
        <mxCell id="-BsYHrq-ux0a8azyBXrp-177" value="" style="endArrow=none;dashed=1;html=1;dashPattern=1 3;strokeWidth=1;rounded=0;fontStyle=1;strokeColor=#2A2B2C;entryX=0.5;entryY=1;entryDx=0;entryDy=0;" edge="1" parent="1" target="uO17ehAxNxv0Zf3d8ahg-309">
          <mxGeometry width="50" height="50" relative="1" as="geometry">
            <mxPoint x="1884" y="710" as="sourcePoint" />
            <mxPoint x="1885" y="1000" as="targetPoint" />
          </mxGeometry>
        </mxCell>
        <mxCell id="-BsYHrq-ux0a8azyBXrp-176" value="" style="endArrow=none;dashed=1;html=1;dashPattern=1 3;strokeWidth=1;rounded=0;fontStyle=1;strokeColor=#2A2B2C;entryX=0.5;entryY=1;entryDx=0;entryDy=0;" edge="1" parent="1" target="uO17ehAxNxv0Zf3d8ahg-308">
          <mxGeometry width="50" height="50" relative="1" as="geometry">
            <mxPoint x="1824" y="660" as="sourcePoint" />
            <mxPoint x="1825" y="950" as="targetPoint" />
          </mxGeometry>
        </mxCell>
        <mxCell id="-BsYHrq-ux0a8azyBXrp-175" value="" style="endArrow=none;dashed=1;html=1;dashPattern=1 3;strokeWidth=1;rounded=0;fontStyle=1;strokeColor=#2A2B2C;" edge="1" parent="1">
          <mxGeometry width="50" height="50" relative="1" as="geometry">
            <mxPoint x="1764" y="660" as="sourcePoint" />
            <mxPoint x="1765" y="902" as="targetPoint" />
          </mxGeometry>
        </mxCell>
        <mxCell id="-BsYHrq-ux0a8azyBXrp-174" value="" style="endArrow=none;dashed=1;html=1;dashPattern=1 3;strokeWidth=1;rounded=0;fontStyle=1;strokeColor=#2A2B2C;entryX=0.5;entryY=1;entryDx=0;entryDy=0;" edge="1" parent="1" target="uO17ehAxNxv0Zf3d8ahg-361">
          <mxGeometry width="50" height="50" relative="1" as="geometry">
            <mxPoint x="1704" y="610" as="sourcePoint" />
            <mxPoint x="1705" y="702" as="targetPoint" />
          </mxGeometry>
        </mxCell>
        <mxCell id="-BsYHrq-ux0a8azyBXrp-173" value="" style="endArrow=none;dashed=1;html=1;dashPattern=1 3;strokeWidth=1;rounded=0;fontStyle=1;strokeColor=#2A2B2C;exitX=0.489;exitY=0.04;exitDx=0;exitDy=0;exitPerimeter=0;entryX=0.5;entryY=1;entryDx=0;entryDy=0;" edge="1" parent="1" target="uO17ehAxNxv0Zf3d8ahg-360">
          <mxGeometry width="50" height="50" relative="1" as="geometry">
            <mxPoint x="1644" y="560" as="sourcePoint" />
            <mxPoint x="1645" y="700" as="targetPoint" />
          </mxGeometry>
        </mxCell>
        <mxCell id="-BsYHrq-ux0a8azyBXrp-172" value="" style="endArrow=none;dashed=1;html=1;dashPattern=1 3;strokeWidth=1;rounded=0;fontStyle=1;entryX=0.5;entryY=1;entryDx=0;entryDy=0;strokeColor=#2A2B2C;exitX=0.489;exitY=0.04;exitDx=0;exitDy=0;exitPerimeter=0;" edge="1" parent="1" target="uO17ehAxNxv0Zf3d8ahg-292">
          <mxGeometry width="50" height="50" relative="1" as="geometry">
            <mxPoint x="1644" y="710" as="sourcePoint" />
            <mxPoint x="1645" y="948" as="targetPoint" />
          </mxGeometry>
        </mxCell>
        <mxCell id="-BsYHrq-ux0a8azyBXrp-170" value="" style="endArrow=none;dashed=1;html=1;dashPattern=1 3;strokeWidth=1;rounded=0;fontStyle=1;entryX=0.5;entryY=1;entryDx=0;entryDy=0;strokeColor=#2A2B2C;exitX=0.5;exitY=0;exitDx=0;exitDy=0;" edge="1" parent="1" source="uO17ehAxNxv0Zf3d8ahg-285">
          <mxGeometry width="50" height="50" relative="1" as="geometry">
            <mxPoint x="1404" y="1012" as="sourcePoint" />
            <mxPoint x="1405" y="1250" as="targetPoint" />
          </mxGeometry>
        </mxCell>
        <mxCell id="-BsYHrq-ux0a8azyBXrp-169" value="" style="endArrow=none;dashed=1;html=1;dashPattern=1 3;strokeWidth=1;rounded=0;fontStyle=1;entryX=0.5;entryY=1;entryDx=0;entryDy=0;strokeColor=#2A2B2C;exitX=0.489;exitY=0.04;exitDx=0;exitDy=0;exitPerimeter=0;" edge="1" parent="1" target="uO17ehAxNxv0Zf3d8ahg-346">
          <mxGeometry width="50" height="50" relative="1" as="geometry">
            <mxPoint x="1524" y="710" as="sourcePoint" />
            <mxPoint x="1525" y="948" as="targetPoint" />
          </mxGeometry>
        </mxCell>
        <mxCell id="-BsYHrq-ux0a8azyBXrp-166" value="" style="endArrow=none;dashed=1;html=1;dashPattern=1 3;strokeWidth=1;rounded=0;fontStyle=1;strokeColor=#2A2B2C;" edge="1" parent="1">
          <mxGeometry width="50" height="50" relative="1" as="geometry">
            <mxPoint x="1344.0600000000002" y="610" as="sourcePoint" />
            <mxPoint x="1345" y="900" as="targetPoint" />
          </mxGeometry>
        </mxCell>
        <mxCell id="-BsYHrq-ux0a8azyBXrp-167" value="" style="endArrow=none;dashed=1;html=1;dashPattern=1 3;strokeWidth=1;rounded=0;fontStyle=1;entryX=0.5;entryY=1;entryDx=0;entryDy=0;strokeColor=#2A2B2C;exitX=0.489;exitY=0.04;exitDx=0;exitDy=0;exitPerimeter=0;" edge="1" parent="1" source="uO17ehAxNxv0Zf3d8ahg-329" target="uO17ehAxNxv0Zf3d8ahg-340">
          <mxGeometry width="50" height="50" relative="1" as="geometry">
            <mxPoint x="1405" y="660" as="sourcePoint" />
            <mxPoint x="1404.93" y="1110" as="targetPoint" />
          </mxGeometry>
        </mxCell>
        <mxCell id="-BsYHrq-ux0a8azyBXrp-168" value="" style="endArrow=none;dashed=1;html=1;dashPattern=1 3;strokeWidth=1;rounded=0;fontStyle=1;entryX=0.5;entryY=1;entryDx=0;entryDy=0;strokeColor=#2A2B2C;exitX=0.489;exitY=0.04;exitDx=0;exitDy=0;exitPerimeter=0;" edge="1" parent="1" target="uO17ehAxNxv0Zf3d8ahg-345">
          <mxGeometry width="50" height="50" relative="1" as="geometry">
            <mxPoint x="1464" y="660" as="sourcePoint" />
            <mxPoint x="1465" y="898" as="targetPoint" />
          </mxGeometry>
        </mxCell>
        <mxCell id="-BsYHrq-ux0a8azyBXrp-164" value="v&lt;span style=&quot;color: rgba(0, 0, 0, 0); font-family: monospace; font-size: 0px; font-weight: 400; text-align: start; background-color: rgb(251, 251, 251);&quot;&gt;%3CmxGraphModel%3E%3Croot%3E%3CmxCell%20id%3D%220%22%2F%3E%3CmxCell%20id%3D%221%22%20parent%3D%220%22%2F%3E%3CmxCell%20id%3D%222%22%20value%3D%22%22%20style%3D%22endArrow%3Dnone%3Bdashed%3D1%3Bhtml%3D1%3BdashPattern%3D1%203%3BstrokeWidth%3D1%3Brounded%3D0%3BfontStyle%3D1%3BentryX%3D0.5%3BentryY%3D1%3BentryDx%3D0%3BentryDy%3D0%3BstrokeColor%3D%232A2B2C%3B%22%20edge%3D%221%22%20parent%3D%221%22%3E%3CmxGeometry%20width%3D%2250%22%20height%3D%2250%22%20relative%3D%221%22%20as%3D%22geometry%22%3E%3CmxPoint%20x%3D%221284.13%22%20y%3D%22600%22%20as%3D%22sourcePoint%22%2F%3E%3CmxPoint%20x%3D%221285%22%20y%3D%221100%22%20as%3D%22targetPoint%22%2F%3E%3C%2FmxGeometry%3E%3C%2FmxCell%3E%3C%2Froot%3E%3C%2FmxGraphModel%3E&lt;/span&gt;" style="endArrow=none;dashed=1;html=1;dashPattern=1 3;strokeWidth=1;rounded=0;fontStyle=1;entryX=0.5;entryY=1;entryDx=0;entryDy=0;strokeColor=#2A2B2C;" edge="1" parent="1" target="IVNIzT1IpHDhT-juqoZ8-2">
          <mxGeometry width="50" height="50" relative="1" as="geometry">
            <mxPoint x="1284.13" y="600" as="sourcePoint" />
            <mxPoint x="1284.63" y="800" as="targetPoint" />
          </mxGeometry>
        </mxCell>
        <mxCell id="-BsYHrq-ux0a8azyBXrp-165" value="" style="endArrow=none;dashed=1;html=1;dashPattern=1 3;strokeWidth=1;rounded=0;fontStyle=1;strokeColor=#2A2B2C;exitX=0.5;exitY=0;exitDx=0;exitDy=0;" edge="1" parent="1" source="uO17ehAxNxv0Zf3d8ahg-279">
          <mxGeometry width="50" height="50" relative="1" as="geometry">
            <mxPoint x="1224.35" y="1010" as="sourcePoint" />
            <mxPoint x="1224" y="1150" as="targetPoint" />
          </mxGeometry>
        </mxCell>
        <mxCell id="uO17ehAxNxv0Zf3d8ahg-10" value="E3F2FD" style="rounded=1;whiteSpace=wrap;html=1;shadow=0;labelBackgroundColor=none;strokeWidth=1;fontFamily=Verdana;fontSize=8;align=center;fillColor=#64c8f7;gradientColor=none;strokeColor=none;fontStyle=1" parent="1" vertex="1">
          <mxGeometry x="1139.5" y="1010" width="50" height="40" as="geometry" />
        </mxCell>
        <mxCell id="uO17ehAxNxv0Zf3d8ahg-279" value="rd_sop&lt;div&gt;拉高&lt;/div&gt;" style="rounded=1;whiteSpace=wrap;html=1;shadow=0;labelBackgroundColor=none;strokeWidth=1;fontFamily=Verdana;fontSize=8;align=center;fillColor=#addcff;strokeColor=none;fontStyle=1" parent="1" vertex="1">
          <mxGeometry x="1199.5" y="1060" width="50" height="40" as="geometry" />
        </mxCell>
        <mxCell id="uO17ehAxNxv0Zf3d8ahg-280" value="分配调度任务&lt;br&gt;&lt;div&gt;请求指示码&lt;br&gt;等待握手&lt;/div&gt;" style="rounded=1;whiteSpace=wrap;html=1;shadow=0;labelBackgroundColor=none;strokeWidth=1;fontFamily=Verdana;fontSize=8;align=center;fillColor=#B3E5FC;strokeColor=none;fontStyle=1" parent="1" vertex="1">
          <mxGeometry x="1199.5" y="1110" width="50" height="40" as="geometry" />
        </mxCell>
        <mxCell id="uO17ehAxNxv0Zf3d8ahg-285" value="握手成功&lt;br&gt;获得批次&lt;br&gt;长度(N)" style="rounded=1;whiteSpace=wrap;html=1;shadow=0;labelBackgroundColor=none;strokeWidth=1;fontFamily=Verdana;fontSize=8;align=center;fillColor=#B3E5FC;strokeColor=none;fontStyle=1" parent="1" vertex="1">
          <mxGeometry x="1379.5" y="1110" width="50" height="40" as="geometry" />
        </mxCell>
        <mxCell id="uO17ehAxNxv0Zf3d8ahg-287" value="E3F2FD" style="rounded=1;whiteSpace=wrap;html=1;shadow=0;labelBackgroundColor=none;strokeWidth=1;fontFamily=Verdana;fontSize=8;align=center;fillColor=#b9f1f8;strokeColor=none;fontStyle=1" parent="1" vertex="1">
          <mxGeometry x="1379.5" y="1160" width="50" height="40" as="geometry" />
        </mxCell>
        <mxCell id="uO17ehAxNxv0Zf3d8ahg-288" value="rd_data&lt;br&gt;ECC校验器&lt;br&gt;输出#0" style="rounded=1;whiteSpace=wrap;html=1;shadow=0;labelBackgroundColor=none;strokeWidth=1;fontFamily=Verdana;fontSize=8;align=center;fillColor=#90e8f4;strokeColor=none;fontStyle=1" parent="1" vertex="1">
          <mxGeometry x="1379.5" y="1210" width="50" height="40" as="geometry" />
        </mxCell>
        <mxCell id="uO17ehAxNxv0Zf3d8ahg-289" value="rd_data&lt;br&gt;ECC校验器&lt;br&gt;输出#1" style="rounded=1;whiteSpace=wrap;html=1;shadow=0;labelBackgroundColor=none;strokeWidth=1;fontFamily=Verdana;fontSize=8;align=center;fillColor=#90e8f4;strokeColor=none;fontStyle=1" parent="1" vertex="1">
          <mxGeometry x="1439.5" y="1210" width="50" height="40" as="geometry" />
        </mxCell>
        <mxCell id="uO17ehAxNxv0Zf3d8ahg-290" value="rd_data&lt;br&gt;ECC校验器&lt;br&gt;输出#2" style="rounded=1;whiteSpace=wrap;html=1;shadow=0;labelBackgroundColor=none;strokeWidth=1;fontFamily=Verdana;fontSize=8;align=center;fillColor=#90e8f4;strokeColor=none;fontStyle=1" parent="1" vertex="1">
          <mxGeometry x="1499.5" y="1210" width="50" height="40" as="geometry" />
        </mxCell>
        <mxCell id="uO17ehAxNxv0Zf3d8ahg-291" value="" style="endArrow=none;dashed=1;html=1;rounded=0;fontStyle=1" parent="1" edge="1">
          <mxGeometry width="50" height="50" relative="1" as="geometry">
            <mxPoint x="1559.5" y="1230" as="sourcePoint" />
            <mxPoint x="1609.5" y="1230" as="targetPoint" />
          </mxGeometry>
        </mxCell>
        <mxCell id="uO17ehAxNxv0Zf3d8ahg-292" value="rd_data&lt;br&gt;ECC校验器&lt;br&gt;输出#(N-1)" style="rounded=1;whiteSpace=wrap;html=1;shadow=0;labelBackgroundColor=none;strokeWidth=1;fontFamily=Verdana;fontSize=8;align=center;fillColor=#90e8f4;strokeColor=none;fontStyle=1" parent="1" vertex="1">
          <mxGeometry x="1619.5" y="1210" width="50" height="40" as="geometry" />
        </mxCell>
        <mxCell id="uO17ehAxNxv0Zf3d8ahg-293" value="rd_vld&lt;br&gt;拉低" style="rounded=1;whiteSpace=wrap;html=1;shadow=0;labelBackgroundColor=none;strokeWidth=1;fontFamily=Verdana;fontSize=8;align=center;fillColor=#b9f1f8;strokeColor=none;fontStyle=1" parent="1" vertex="1">
          <mxGeometry x="1619.5" y="1160" width="50" height="40" as="geometry" />
        </mxCell>
        <mxCell id="uO17ehAxNxv0Zf3d8ahg-294" value="本批次握手&lt;br&gt;处理完毕&lt;br&gt;等待下次握手" style="rounded=1;whiteSpace=wrap;html=1;shadow=0;labelBackgroundColor=none;strokeWidth=1;fontFamily=Verdana;fontSize=8;align=center;fillColor=#B3E5FC;strokeColor=none;fontStyle=1" parent="1" vertex="1">
          <mxGeometry x="1619.5" y="1110" width="50" height="40" as="geometry" />
        </mxCell>
        <mxCell id="uO17ehAxNxv0Zf3d8ahg-306" value="握手成功&lt;br&gt;获得批次&lt;br&gt;长度(M)" style="rounded=1;whiteSpace=wrap;html=1;shadow=0;labelBackgroundColor=none;strokeWidth=1;fontFamily=Verdana;fontSize=8;align=center;fillColor=#B3E5FC;strokeColor=none;fontStyle=1" parent="1" vertex="1">
          <mxGeometry x="1799.5" y="1110" width="50" height="40" as="geometry" />
        </mxCell>
        <mxCell id="uO17ehAxNxv0Zf3d8ahg-307" value="rd_vld&lt;br&gt;拉高" style="rounded=1;whiteSpace=wrap;html=1;shadow=0;labelBackgroundColor=none;strokeWidth=1;fontFamily=Verdana;fontSize=8;align=center;fillColor=#b9f1f8;strokeColor=none;fontStyle=1" parent="1" vertex="1">
          <mxGeometry x="1799.5" y="1160" width="50" height="40" as="geometry" />
        </mxCell>
        <mxCell id="uO17ehAxNxv0Zf3d8ahg-308" value="rd_data&lt;br&gt;ECC校验器&lt;br&gt;输出#0" style="rounded=1;whiteSpace=wrap;html=1;shadow=0;labelBackgroundColor=none;strokeWidth=1;fontFamily=Verdana;fontSize=8;align=center;fillColor=#90e8f4;strokeColor=none;fontStyle=1" parent="1" vertex="1">
          <mxGeometry x="1799.5" y="1210" width="50" height="40" as="geometry" />
        </mxCell>
        <mxCell id="uO17ehAxNxv0Zf3d8ahg-309" value="rd_data&lt;br&gt;ECC校验器&lt;br&gt;输出#1" style="rounded=1;whiteSpace=wrap;html=1;shadow=0;labelBackgroundColor=none;strokeWidth=1;fontFamily=Verdana;fontSize=8;align=center;fillColor=#90e8f4;strokeColor=none;fontStyle=1" parent="1" vertex="1">
          <mxGeometry x="1859.5" y="1210" width="50" height="40" as="geometry" />
        </mxCell>
        <mxCell id="uO17ehAxNxv0Zf3d8ahg-310" value="rd_data&lt;br&gt;ECC校验器&lt;br&gt;输出#2" style="rounded=1;whiteSpace=wrap;html=1;shadow=0;labelBackgroundColor=none;strokeWidth=1;fontFamily=Verdana;fontSize=8;align=center;fillColor=#90e8f4;strokeColor=none;fontStyle=1" parent="1" vertex="1">
          <mxGeometry x="1919.5" y="1210" width="50" height="40" as="geometry" />
        </mxCell>
        <mxCell id="uO17ehAxNxv0Zf3d8ahg-311" value="" style="endArrow=none;dashed=1;html=1;rounded=0;fontStyle=1" parent="1" edge="1">
          <mxGeometry width="50" height="50" relative="1" as="geometry">
            <mxPoint x="1979.5" y="1230" as="sourcePoint" />
            <mxPoint x="2029.5" y="1230" as="targetPoint" />
          </mxGeometry>
        </mxCell>
        <mxCell id="uO17ehAxNxv0Zf3d8ahg-312" value="rd_data&lt;br&gt;ECC校验器&lt;br&gt;输出&lt;span style=&quot;background-color: initial;&quot;&gt;#(M-1)&lt;/span&gt;" style="rounded=1;whiteSpace=wrap;html=1;shadow=0;labelBackgroundColor=none;strokeWidth=1;fontFamily=Verdana;fontSize=8;align=center;fillColor=#90e8f4;strokeColor=none;fontStyle=1" parent="1" vertex="1">
          <mxGeometry x="2039.5" y="1210" width="50.5" height="40" as="geometry" />
        </mxCell>
        <mxCell id="uO17ehAxNxv0Zf3d8ahg-313" value="本批次握手&lt;br&gt;处理完毕&lt;br&gt;终止信号" style="rounded=1;whiteSpace=wrap;html=1;shadow=0;labelBackgroundColor=none;strokeWidth=1;fontFamily=Verdana;fontSize=8;align=center;fillColor=#B3E5FC;strokeColor=none;fontStyle=1" parent="1" vertex="1">
          <mxGeometry x="2039.5" y="1110" width="50" height="40" as="geometry" />
        </mxCell>
        <mxCell id="uO17ehAxNxv0Zf3d8ahg-316" value="rd_vld&lt;br&gt;拉低" style="rounded=1;whiteSpace=wrap;html=1;shadow=0;labelBackgroundColor=none;strokeWidth=1;fontFamily=Verdana;fontSize=8;align=center;fillColor=#b9f1f8;strokeColor=none;fontStyle=1" parent="1" vertex="1">
          <mxGeometry x="2039.5" y="1160" width="50" height="40" as="geometry" />
        </mxCell>
        <mxCell id="uO17ehAxNxv0Zf3d8ahg-317" value="rd_eop&lt;div&gt;拉高&lt;/div&gt;" style="rounded=1;whiteSpace=wrap;html=1;shadow=0;labelBackgroundColor=none;strokeWidth=1;fontFamily=Verdana;fontSize=8;align=center;fillColor=#addcff;gradientColor=none;strokeColor=none;fontStyle=1" parent="1" vertex="1">
          <mxGeometry x="2039.5" y="1060" width="50" height="40" as="geometry" />
        </mxCell>
        <mxCell id="uO17ehAxNxv0Zf3d8ahg-318" value="" style="shape=curlyBracket;whiteSpace=wrap;html=1;rounded=1;labelPosition=left;verticalLabelPosition=middle;align=right;verticalAlign=middle;direction=north;fontStyle=1" parent="1" vertex="1">
          <mxGeometry x="1679.5" y="1140" width="110.5" height="20" as="geometry" />
        </mxCell>
        <mxCell id="uO17ehAxNxv0Zf3d8ahg-319" value="SRAM正处理其他端口的请求&lt;div&gt;&lt;br&gt;&lt;/div&gt;" style="rounded=1;whiteSpace=wrap;html=1;shadow=0;labelBackgroundColor=none;strokeWidth=1;fontFamily=Verdana;fontSize=8;align=center;fillColor=none;strokeColor=none;fontStyle=1" parent="1" vertex="1">
          <mxGeometry x="1681.13" y="1160" width="107.25" height="30" as="geometry" />
        </mxCell>
        <mxCell id="uO17ehAxNxv0Zf3d8ahg-320" value="" style="shape=curlyBracket;whiteSpace=wrap;html=1;rounded=1;labelPosition=left;verticalLabelPosition=middle;align=right;verticalAlign=middle;direction=north;fontStyle=1" parent="1" vertex="1">
          <mxGeometry x="1259.5" y="1140" width="110.5" height="20" as="geometry" />
        </mxCell>
        <mxCell id="uO17ehAxNxv0Zf3d8ahg-321" value="SRAM正处理其他端口的请求&lt;br&gt;或读取当前数据包的第一页" style="rounded=1;whiteSpace=wrap;html=1;shadow=0;labelBackgroundColor=none;strokeWidth=1;fontFamily=Verdana;fontSize=8;align=center;fillColor=none;strokeColor=none;fontStyle=1" parent="1" vertex="1">
          <mxGeometry x="1256.13" y="1160" width="117.25" height="30" as="geometry" />
        </mxCell>
        <mxCell id="uO17ehAxNxv0Zf3d8ahg-322" value="轮询端口请求&lt;br&gt;(Port #1)" style="rounded=1;whiteSpace=wrap;html=1;shadow=0;labelBackgroundColor=none;strokeWidth=1;fontFamily=Verdana;fontSize=8;align=center;fontStyle=1;fillColor=#f8e1fe;strokeColor=none;" parent="1" vertex="1">
          <mxGeometry x="1259.5" y="560" width="50" height="40" as="geometry" />
        </mxCell>
        <mxCell id="uO17ehAxNxv0Zf3d8ahg-323" value="读取端口1&lt;br&gt;处理队列&lt;br&gt;头地址" style="rounded=1;whiteSpace=wrap;html=1;shadow=0;labelBackgroundColor=none;strokeWidth=1;fontFamily=Verdana;fontSize=8;align=center;fontStyle=1;fillColor=#efe0ff;strokeColor=none;" parent="1" vertex="1">
          <mxGeometry x="1259.5" y="610" width="50" height="40" as="geometry" />
        </mxCell>
        <mxCell id="uO17ehAxNxv0Zf3d8ahg-324" value="更新头地址&lt;br&gt;为跳转表&lt;br&gt;下页地址" style="rounded=1;whiteSpace=wrap;html=1;shadow=0;labelBackgroundColor=none;strokeWidth=1;fontFamily=Verdana;fontSize=8;align=center;fontStyle=1;fillColor=#efe0ff;strokeColor=none;" parent="1" vertex="1">
          <mxGeometry x="1319.5" y="610" width="50" height="40" as="geometry" />
        </mxCell>
        <mxCell id="uO17ehAxNxv0Zf3d8ahg-325" value="读取SRAM&lt;br&gt;页内容#0" style="rounded=1;whiteSpace=wrap;html=1;shadow=0;labelBackgroundColor=none;strokeWidth=1;fontFamily=Verdana;fontSize=8;align=center;fontStyle=1;fillColor=#e6e0ff;strokeColor=none;" parent="1" vertex="1">
          <mxGeometry x="1259.5" y="660" width="50" height="40" as="geometry" />
        </mxCell>
        <mxCell id="uO17ehAxNxv0Zf3d8ahg-326" value="刷新&lt;div&gt;(初始化)&lt;br&gt;数据包长度&lt;/div&gt;" style="rounded=1;whiteSpace=wrap;html=1;shadow=0;labelBackgroundColor=none;strokeWidth=1;fontFamily=Verdana;fontSize=8;align=center;fontStyle=1;fillColor=#ead6f0;strokeColor=none;" parent="1" vertex="1">
          <mxGeometry x="1319.5" y="860" width="50" height="40" as="geometry" />
        </mxCell>
        <mxCell id="uO17ehAxNxv0Zf3d8ahg-328" value="读取SRAM&lt;br&gt;页内容#1" style="rounded=1;whiteSpace=wrap;html=1;shadow=0;labelBackgroundColor=none;strokeWidth=1;fontFamily=Verdana;fontSize=8;align=center;fontStyle=1;fillColor=#e6e0ff;strokeColor=none;" parent="1" vertex="1">
          <mxGeometry x="1319.5" y="660" width="50" height="40" as="geometry" />
        </mxCell>
        <mxCell id="uO17ehAxNxv0Zf3d8ahg-329" value="读取SRAM&lt;br&gt;页内容#2" style="rounded=1;whiteSpace=wrap;html=1;shadow=0;labelBackgroundColor=none;strokeWidth=1;fontFamily=Verdana;fontSize=8;align=center;fontStyle=1;fillColor=#e6e0ff;strokeColor=none;" parent="1" vertex="1">
          <mxGeometry x="1379" y="660" width="51" height="40" as="geometry" />
        </mxCell>
        <mxCell id="uO17ehAxNxv0Zf3d8ahg-330" value="读取SRAM&lt;br&gt;页内容#3" style="rounded=1;whiteSpace=wrap;html=1;shadow=0;labelBackgroundColor=none;strokeWidth=1;fontFamily=Verdana;fontSize=8;align=center;fontStyle=1;fillColor=#E6E0FF;strokeColor=none;" parent="1" vertex="1">
          <mxGeometry x="1439.5" y="660" width="50" height="40" as="geometry" />
        </mxCell>
        <mxCell id="uO17ehAxNxv0Zf3d8ahg-331" value="" style="endArrow=none;dashed=1;html=1;rounded=0;fontStyle=1" parent="1" edge="1">
          <mxGeometry width="50" height="50" relative="1" as="geometry">
            <mxPoint x="1499.5" y="679.71" as="sourcePoint" />
            <mxPoint x="1549.5" y="679.71" as="targetPoint" />
          </mxGeometry>
        </mxCell>
        <mxCell id="uO17ehAxNxv0Zf3d8ahg-332" value="读取SRAM&lt;br&gt;页内容#7" style="rounded=1;whiteSpace=wrap;html=1;shadow=0;labelBackgroundColor=none;strokeWidth=1;fontFamily=Verdana;fontSize=8;align=center;fontStyle=1;fillColor=#E6E0FF;strokeColor=none;" parent="1" vertex="1">
          <mxGeometry x="1559.5" y="660" width="50" height="40" as="geometry" />
        </mxCell>
        <mxCell id="uO17ehAxNxv0Zf3d8ahg-462" style="edgeStyle=orthogonalEdgeStyle;rounded=0;orthogonalLoop=1;jettySize=auto;html=1;exitX=0.5;exitY=1;exitDx=0;exitDy=0;entryX=0.5;entryY=0;entryDx=0;entryDy=0;endArrow=blockThin;endFill=1;fontStyle=1" parent="1" source="uO17ehAxNxv0Zf3d8ahg-334" target="uO17ehAxNxv0Zf3d8ahg-343" edge="1">
          <mxGeometry relative="1" as="geometry" />
        </mxCell>
        <mxCell id="uO17ehAxNxv0Zf3d8ahg-334" value="得到SRAM&lt;br&gt;页内容#0" style="rounded=1;whiteSpace=wrap;html=1;shadow=0;labelBackgroundColor=none;strokeWidth=1;fontFamily=Verdana;fontSize=8;align=center;fontStyle=1;fillColor=#ffd6eb;strokeColor=none;" parent="1" vertex="1">
          <mxGeometry x="1319.5" y="710" width="50" height="40" as="geometry" />
        </mxCell>
        <mxCell id="uO17ehAxNxv0Zf3d8ahg-465" style="edgeStyle=orthogonalEdgeStyle;rounded=0;orthogonalLoop=1;jettySize=auto;html=1;exitX=0.5;exitY=1;exitDx=0;exitDy=0;entryX=0.5;entryY=0;entryDx=0;entryDy=0;endArrow=blockThin;endFill=1;fontStyle=1" parent="1" source="uO17ehAxNxv0Zf3d8ahg-335" target="uO17ehAxNxv0Zf3d8ahg-344" edge="1">
          <mxGeometry relative="1" as="geometry" />
        </mxCell>
        <mxCell id="uO17ehAxNxv0Zf3d8ahg-335" value="得到SRAM&lt;br&gt;页内容#1" style="rounded=1;whiteSpace=wrap;html=1;shadow=0;labelBackgroundColor=none;strokeWidth=1;fontFamily=Verdana;fontSize=8;align=center;fontStyle=1;fillColor=#ffd6eb;strokeColor=none;" parent="1" vertex="1">
          <mxGeometry x="1379.5" y="710" width="50" height="40" as="geometry" />
        </mxCell>
        <mxCell id="uO17ehAxNxv0Zf3d8ahg-466" style="edgeStyle=orthogonalEdgeStyle;rounded=0;orthogonalLoop=1;jettySize=auto;html=1;exitX=0.5;exitY=1;exitDx=0;exitDy=0;entryX=0.5;entryY=0;entryDx=0;entryDy=0;endArrow=blockThin;endFill=1;fontStyle=1" parent="1" source="uO17ehAxNxv0Zf3d8ahg-336" target="uO17ehAxNxv0Zf3d8ahg-345" edge="1">
          <mxGeometry relative="1" as="geometry" />
        </mxCell>
        <mxCell id="uO17ehAxNxv0Zf3d8ahg-336" value="得到SRAM&lt;br&gt;页内容#2" style="rounded=1;whiteSpace=wrap;html=1;shadow=0;labelBackgroundColor=none;strokeWidth=1;fontFamily=Verdana;fontSize=8;align=center;fontStyle=1;fillColor=#ffd6eb;strokeColor=none;" parent="1" vertex="1">
          <mxGeometry x="1439.5" y="710" width="50" height="40" as="geometry" />
        </mxCell>
        <mxCell id="uO17ehAxNxv0Zf3d8ahg-467" style="edgeStyle=orthogonalEdgeStyle;rounded=0;orthogonalLoop=1;jettySize=auto;html=1;exitX=0.5;exitY=1;exitDx=0;exitDy=0;entryX=0.5;entryY=0;entryDx=0;entryDy=0;endArrow=blockThin;endFill=1;fontStyle=1" parent="1" source="uO17ehAxNxv0Zf3d8ahg-337" target="uO17ehAxNxv0Zf3d8ahg-346" edge="1">
          <mxGeometry relative="1" as="geometry" />
        </mxCell>
        <mxCell id="uO17ehAxNxv0Zf3d8ahg-337" value="得到SRAM&lt;br&gt;页内容#3" style="rounded=1;whiteSpace=wrap;html=1;shadow=0;labelBackgroundColor=none;strokeWidth=1;fontFamily=Verdana;fontSize=8;align=center;fontStyle=1;fillColor=#ffd6eb;strokeColor=none;" parent="1" vertex="1">
          <mxGeometry x="1499.5" y="710" width="50" height="40" as="geometry" />
        </mxCell>
        <mxCell id="uO17ehAxNxv0Zf3d8ahg-338" value="" style="endArrow=none;dashed=1;html=1;rounded=0;fontStyle=1" parent="1" edge="1">
          <mxGeometry width="50" height="50" relative="1" as="geometry">
            <mxPoint x="1559.5" y="729.71" as="sourcePoint" />
            <mxPoint x="1609.5" y="729.71" as="targetPoint" />
          </mxGeometry>
        </mxCell>
        <mxCell id="uO17ehAxNxv0Zf3d8ahg-468" style="edgeStyle=orthogonalEdgeStyle;rounded=0;orthogonalLoop=1;jettySize=auto;html=1;exitX=0.5;exitY=1;exitDx=0;exitDy=0;entryX=0.5;entryY=0;entryDx=0;entryDy=0;endArrow=blockThin;endFill=1;fontStyle=1" parent="1" source="uO17ehAxNxv0Zf3d8ahg-339" target="uO17ehAxNxv0Zf3d8ahg-349" edge="1">
          <mxGeometry relative="1" as="geometry" />
        </mxCell>
        <mxCell id="uO17ehAxNxv0Zf3d8ahg-339" value="得到SRAM&lt;br&gt;页内容#7" style="rounded=1;whiteSpace=wrap;html=1;shadow=0;labelBackgroundColor=none;strokeWidth=1;fontFamily=Verdana;fontSize=8;align=center;fontStyle=1;fillColor=#FFD6EB;strokeColor=none;" parent="1" vertex="1">
          <mxGeometry x="1619.5" y="710" width="50" height="40" as="geometry" />
        </mxCell>
        <mxCell id="uO17ehAxNxv0Zf3d8ahg-340" value="刷新&lt;br&gt;数据包长度" style="rounded=1;whiteSpace=wrap;html=1;shadow=0;labelBackgroundColor=none;strokeWidth=1;fontFamily=Verdana;fontSize=8;align=center;fontStyle=1;fillColor=#ead6f0;strokeColor=none;" parent="1" vertex="1">
          <mxGeometry x="1379.5" y="860" width="50" height="40" as="geometry" />
        </mxCell>
        <mxCell id="uO17ehAxNxv0Zf3d8ahg-342" value="" style="endArrow=none;dashed=1;html=1;rounded=0;fontStyle=1" parent="1" edge="1">
          <mxGeometry width="50" height="50" relative="1" as="geometry">
            <mxPoint x="1439.5" y="879.71" as="sourcePoint" />
            <mxPoint x="1609.5" y="880" as="targetPoint" />
          </mxGeometry>
        </mxCell>
        <mxCell id="uO17ehAxNxv0Zf3d8ahg-343" value="写入ECC校验器缓冲区#0" style="rounded=1;whiteSpace=wrap;html=1;shadow=0;labelBackgroundColor=none;strokeWidth=1;fontFamily=Verdana;fontSize=8;align=center;fontStyle=1;fillColor=#f5ccff;strokeColor=none;" parent="1" vertex="1">
          <mxGeometry x="1319.5" y="760" width="50" height="40" as="geometry" />
        </mxCell>
        <mxCell id="uO17ehAxNxv0Zf3d8ahg-344" value="写入ECC校验器缓冲区#1" style="rounded=1;whiteSpace=wrap;html=1;shadow=0;labelBackgroundColor=none;strokeWidth=1;fontFamily=Verdana;fontSize=8;align=center;fontStyle=1;fillColor=#f5ccff;strokeColor=none;" parent="1" vertex="1">
          <mxGeometry x="1379.5" y="760" width="50" height="40" as="geometry" />
        </mxCell>
        <mxCell id="uO17ehAxNxv0Zf3d8ahg-345" value="写入ECC校验器缓冲区#2" style="rounded=1;whiteSpace=wrap;html=1;shadow=0;labelBackgroundColor=none;strokeWidth=1;fontFamily=Verdana;fontSize=8;align=center;fontStyle=1;fillColor=#f5ccff;strokeColor=none;" parent="1" vertex="1">
          <mxGeometry x="1439.5" y="760" width="50" height="40" as="geometry" />
        </mxCell>
        <mxCell id="uO17ehAxNxv0Zf3d8ahg-346" value="写入ECC校验器缓冲区#3" style="rounded=1;whiteSpace=wrap;html=1;shadow=0;labelBackgroundColor=none;strokeWidth=1;fontFamily=Verdana;fontSize=8;align=center;fontStyle=1;fillColor=#f5ccff;strokeColor=none;" parent="1" vertex="1">
          <mxGeometry x="1499.5" y="760" width="50" height="40" as="geometry" />
        </mxCell>
        <mxCell id="uO17ehAxNxv0Zf3d8ahg-348" value="" style="endArrow=none;dashed=1;html=1;rounded=0;fontStyle=1" parent="1" edge="1">
          <mxGeometry width="50" height="50" relative="1" as="geometry">
            <mxPoint x="1559.5" y="779.71" as="sourcePoint" />
            <mxPoint x="1609.5" y="779.71" as="targetPoint" />
          </mxGeometry>
        </mxCell>
        <mxCell id="uO17ehAxNxv0Zf3d8ahg-349" value="写入ECC校验器缓冲区#7" style="rounded=1;whiteSpace=wrap;html=1;shadow=0;labelBackgroundColor=none;strokeWidth=1;fontFamily=Verdana;fontSize=8;align=center;fontStyle=1;fillColor=#F5CCFF;strokeColor=none;" parent="1" vertex="1">
          <mxGeometry x="1619.5" y="760" width="50" height="40" as="geometry" />
        </mxCell>
        <mxCell id="uO17ehAxNxv0Zf3d8ahg-350" value="读取ECC存储页校验码" style="rounded=1;whiteSpace=wrap;html=1;shadow=0;labelBackgroundColor=none;strokeWidth=1;fontFamily=Verdana;fontSize=8;align=center;fontStyle=1;fillColor=#c3c3fe;strokeColor=none;" parent="1" vertex="1">
          <mxGeometry x="1259.5" y="810" width="50" height="40" as="geometry" />
        </mxCell>
        <mxCell id="uO17ehAxNxv0Zf3d8ahg-351" value="写入ECC校验器校验码" style="rounded=1;whiteSpace=wrap;html=1;shadow=0;labelBackgroundColor=none;strokeWidth=1;fontFamily=Verdana;fontSize=8;align=center;fontStyle=1;fillColor=#c3c3fe;strokeColor=none;" parent="1" vertex="1">
          <mxGeometry x="1319.5" y="810" width="50" height="40" as="geometry" />
        </mxCell>
        <mxCell id="uO17ehAxNxv0Zf3d8ahg-353" value="ECC校验器使能拉高" style="rounded=1;whiteSpace=wrap;html=1;shadow=0;labelBackgroundColor=none;strokeWidth=1;fontFamily=Verdana;fontSize=8;align=center;fontStyle=1;fillColor=#C3C3FE;strokeColor=none;" parent="1" vertex="1">
          <mxGeometry x="1619.5" y="810" width="50" height="40" as="geometry" />
        </mxCell>
        <mxCell id="uO17ehAxNxv0Zf3d8ahg-355" value="发出握手信号&lt;br&gt;长度信息(8)" style="rounded=1;whiteSpace=wrap;html=1;shadow=0;labelBackgroundColor=none;strokeWidth=1;fontFamily=Verdana;fontSize=8;align=center;fontStyle=1;fillColor=#f8dbff;strokeColor=none;" parent="1" vertex="1">
          <mxGeometry x="1619.5" y="910" width="50" height="40" as="geometry" />
        </mxCell>
        <mxCell id="uO17ehAxNxv0Zf3d8ahg-356" value="刷新&lt;br&gt;数据包长度" style="rounded=1;whiteSpace=wrap;html=1;shadow=0;labelBackgroundColor=none;strokeWidth=1;fontFamily=Verdana;fontSize=8;align=center;fontStyle=1;fillColor=#ead6f0;strokeColor=none;" parent="1" vertex="1">
          <mxGeometry x="1619.5" y="860" width="50" height="40" as="geometry" />
        </mxCell>
        <mxCell id="uO17ehAxNxv0Zf3d8ahg-357" value="轮询端口请求&lt;br&gt;(Port #N)" style="rounded=1;whiteSpace=wrap;html=1;shadow=0;labelBackgroundColor=none;strokeWidth=1;fontFamily=Verdana;fontSize=8;align=center;fontStyle=1;fillColor=#ea85f9;strokeColor=none;" parent="1" vertex="1">
          <mxGeometry x="1619.5" y="560" width="50" height="40" as="geometry" />
        </mxCell>
        <mxCell id="uO17ehAxNxv0Zf3d8ahg-360" value="读取SRAM&lt;br&gt;页内容#0" style="rounded=1;whiteSpace=wrap;html=1;shadow=0;labelBackgroundColor=none;strokeWidth=1;fontFamily=Verdana;fontSize=8;align=center;fontStyle=1;fillColor=#bda9f9;strokeColor=none;" parent="1" vertex="1">
          <mxGeometry x="1619.5" y="660" width="50" height="40" as="geometry" />
        </mxCell>
        <mxCell id="uO17ehAxNxv0Zf3d8ahg-361" value="刷新&lt;div&gt;(初始化)&lt;br&gt;数据包长度&lt;/div&gt;" style="rounded=1;whiteSpace=wrap;html=1;shadow=0;labelBackgroundColor=none;strokeWidth=1;fontFamily=Verdana;fontSize=8;align=center;fontStyle=1;fillColor=#d686ea;strokeColor=none;" parent="1" vertex="1">
          <mxGeometry x="1679.5" y="860" width="50" height="40" as="geometry" />
        </mxCell>
        <mxCell id="uO17ehAxNxv0Zf3d8ahg-362" value="读取SRAM&lt;br&gt;页内容#1" style="rounded=1;whiteSpace=wrap;html=1;shadow=0;labelBackgroundColor=none;strokeWidth=1;fontFamily=Verdana;fontSize=8;align=center;fontStyle=1;fillColor=#bda9f9;strokeColor=none;" parent="1" vertex="1">
          <mxGeometry x="1679.5" y="660" width="50" height="40" as="geometry" />
        </mxCell>
        <mxCell id="uO17ehAxNxv0Zf3d8ahg-363" value="读取SRAM&lt;br&gt;页内容#2" style="rounded=1;whiteSpace=wrap;html=1;shadow=0;labelBackgroundColor=none;strokeWidth=1;fontFamily=Verdana;fontSize=8;align=center;fontStyle=1;fillColor=#bda9f9;strokeColor=none;" parent="1" vertex="1">
          <mxGeometry x="1739.5" y="660" width="50" height="40" as="geometry" />
        </mxCell>
        <mxCell id="uO17ehAxNxv0Zf3d8ahg-364" value="读取SRAM&lt;br&gt;页内容#3" style="rounded=1;whiteSpace=wrap;html=1;shadow=0;labelBackgroundColor=none;strokeWidth=1;fontFamily=Verdana;fontSize=8;align=center;fontStyle=1;fillColor=#bda9f9;strokeColor=none;" parent="1" vertex="1">
          <mxGeometry x="1799.5" y="660" width="50" height="40" as="geometry" />
        </mxCell>
        <mxCell id="uO17ehAxNxv0Zf3d8ahg-365" value="" style="endArrow=none;dashed=1;html=1;rounded=0;fontStyle=1" parent="1" edge="1">
          <mxGeometry width="50" height="50" relative="1" as="geometry">
            <mxPoint x="1859.5" y="679.71" as="sourcePoint" />
            <mxPoint x="1909.5" y="679.71" as="targetPoint" />
          </mxGeometry>
        </mxCell>
        <mxCell id="uO17ehAxNxv0Zf3d8ahg-366" value="读取SRAM&lt;br&gt;页内容#7" style="rounded=1;whiteSpace=wrap;html=1;shadow=0;labelBackgroundColor=none;strokeWidth=1;fontFamily=Verdana;fontSize=8;align=center;fontStyle=1;fillColor=#bda9f9;strokeColor=none;" parent="1" vertex="1">
          <mxGeometry x="1919.5" y="660" width="50" height="40" as="geometry" />
        </mxCell>
        <mxCell id="uO17ehAxNxv0Zf3d8ahg-469" style="edgeStyle=orthogonalEdgeStyle;rounded=0;orthogonalLoop=1;jettySize=auto;html=1;exitX=0.5;exitY=1;exitDx=0;exitDy=0;entryX=0.5;entryY=0;entryDx=0;entryDy=0;endArrow=blockThin;endFill=1;fontStyle=1" parent="1" source="uO17ehAxNxv0Zf3d8ahg-367" target="uO17ehAxNxv0Zf3d8ahg-375" edge="1">
          <mxGeometry relative="1" as="geometry" />
        </mxCell>
        <mxCell id="uO17ehAxNxv0Zf3d8ahg-367" value="得到SRAM&lt;br&gt;页内容#0" style="rounded=1;whiteSpace=wrap;html=1;shadow=0;labelBackgroundColor=none;strokeWidth=1;fontFamily=Verdana;fontSize=8;align=center;fontStyle=1;fillColor=#ff99ce;strokeColor=none;" parent="1" vertex="1">
          <mxGeometry x="1679.5" y="710" width="50" height="40" as="geometry" />
        </mxCell>
        <mxCell id="uO17ehAxNxv0Zf3d8ahg-470" style="edgeStyle=orthogonalEdgeStyle;rounded=0;orthogonalLoop=1;jettySize=auto;html=1;exitX=0.5;exitY=1;exitDx=0;exitDy=0;entryX=0.5;entryY=0;entryDx=0;entryDy=0;endArrow=blockThin;endFill=1;fontStyle=1" parent="1" source="uO17ehAxNxv0Zf3d8ahg-368" target="uO17ehAxNxv0Zf3d8ahg-376" edge="1">
          <mxGeometry relative="1" as="geometry" />
        </mxCell>
        <mxCell id="uO17ehAxNxv0Zf3d8ahg-368" value="得到SRAM&lt;br&gt;页内容#1" style="rounded=1;whiteSpace=wrap;html=1;shadow=0;labelBackgroundColor=none;strokeWidth=1;fontFamily=Verdana;fontSize=8;align=center;fontStyle=1;fillColor=#ff99ce;strokeColor=none;" parent="1" vertex="1">
          <mxGeometry x="1739.5" y="710" width="50" height="40" as="geometry" />
        </mxCell>
        <mxCell id="uO17ehAxNxv0Zf3d8ahg-471" style="edgeStyle=orthogonalEdgeStyle;rounded=0;orthogonalLoop=1;jettySize=auto;html=1;exitX=0.5;exitY=1;exitDx=0;exitDy=0;entryX=0.5;entryY=0;entryDx=0;entryDy=0;endArrow=blockThin;endFill=1;fontStyle=1" parent="1" source="uO17ehAxNxv0Zf3d8ahg-369" target="uO17ehAxNxv0Zf3d8ahg-377" edge="1">
          <mxGeometry relative="1" as="geometry" />
        </mxCell>
        <mxCell id="uO17ehAxNxv0Zf3d8ahg-369" value="得到SRAM&lt;br&gt;页内容#2" style="rounded=1;whiteSpace=wrap;html=1;shadow=0;labelBackgroundColor=none;strokeWidth=1;fontFamily=Verdana;fontSize=8;align=center;fontStyle=1;fillColor=#ff99ce;strokeColor=none;" parent="1" vertex="1">
          <mxGeometry x="1799.5" y="710" width="50" height="40" as="geometry" />
        </mxCell>
        <mxCell id="uO17ehAxNxv0Zf3d8ahg-473" style="edgeStyle=orthogonalEdgeStyle;rounded=0;orthogonalLoop=1;jettySize=auto;html=1;exitX=0.5;exitY=1;exitDx=0;exitDy=0;entryX=0.5;entryY=0;entryDx=0;entryDy=0;endArrow=blockThin;endFill=1;fontStyle=1" parent="1" source="uO17ehAxNxv0Zf3d8ahg-370" target="uO17ehAxNxv0Zf3d8ahg-378" edge="1">
          <mxGeometry relative="1" as="geometry" />
        </mxCell>
        <mxCell id="uO17ehAxNxv0Zf3d8ahg-370" value="得到SRAM&lt;br&gt;页内容#3" style="rounded=1;whiteSpace=wrap;html=1;shadow=0;labelBackgroundColor=none;strokeWidth=1;fontFamily=Verdana;fontSize=8;align=center;fontStyle=1;fillColor=#ff99ce;strokeColor=none;" parent="1" vertex="1">
          <mxGeometry x="1859.5" y="710" width="50" height="40" as="geometry" />
        </mxCell>
        <mxCell id="uO17ehAxNxv0Zf3d8ahg-371" value="" style="endArrow=none;dashed=1;html=1;rounded=0;fontStyle=1" parent="1" edge="1">
          <mxGeometry width="50" height="50" relative="1" as="geometry">
            <mxPoint x="1919.5" y="729.71" as="sourcePoint" />
            <mxPoint x="1969.5" y="729.71" as="targetPoint" />
          </mxGeometry>
        </mxCell>
        <mxCell id="uO17ehAxNxv0Zf3d8ahg-474" style="edgeStyle=orthogonalEdgeStyle;rounded=0;orthogonalLoop=1;jettySize=auto;html=1;exitX=0.5;exitY=1;exitDx=0;exitDy=0;entryX=0.5;entryY=0;entryDx=0;entryDy=0;endArrow=blockThin;endFill=1;fontStyle=1" parent="1" source="uO17ehAxNxv0Zf3d8ahg-372" target="uO17ehAxNxv0Zf3d8ahg-380" edge="1">
          <mxGeometry relative="1" as="geometry" />
        </mxCell>
        <mxCell id="uO17ehAxNxv0Zf3d8ahg-372" value="得到SRAM&lt;br&gt;页内容#7" style="rounded=1;whiteSpace=wrap;html=1;shadow=0;labelBackgroundColor=none;strokeWidth=1;fontFamily=Verdana;fontSize=8;align=center;fontStyle=1;fillColor=#ff99ce;strokeColor=none;" parent="1" vertex="1">
          <mxGeometry x="1979.5" y="710" width="50" height="40" as="geometry" />
        </mxCell>
        <mxCell id="uO17ehAxNxv0Zf3d8ahg-373" value="刷新&lt;br&gt;数据包长度" style="rounded=1;whiteSpace=wrap;html=1;shadow=0;labelBackgroundColor=none;strokeWidth=1;fontFamily=Verdana;fontSize=8;align=center;fontStyle=1;fillColor=#d686ea;strokeColor=none;" parent="1" vertex="1">
          <mxGeometry x="1739.5" y="860" width="50" height="40" as="geometry" />
        </mxCell>
        <mxCell id="uO17ehAxNxv0Zf3d8ahg-374" value="" style="endArrow=none;dashed=1;html=1;rounded=0;fontStyle=1" parent="1" edge="1">
          <mxGeometry width="50" height="50" relative="1" as="geometry">
            <mxPoint x="1799.5" y="879.71" as="sourcePoint" />
            <mxPoint x="1969.5" y="880" as="targetPoint" />
          </mxGeometry>
        </mxCell>
        <mxCell id="uO17ehAxNxv0Zf3d8ahg-375" value="写入ECC校验器缓冲区#0" style="rounded=1;whiteSpace=wrap;html=1;shadow=0;labelBackgroundColor=none;strokeWidth=1;fontFamily=Verdana;fontSize=8;align=center;fontStyle=1;fillColor=#e98fff;strokeColor=none;" parent="1" vertex="1">
          <mxGeometry x="1679.5" y="760" width="50" height="40" as="geometry" />
        </mxCell>
        <mxCell id="uO17ehAxNxv0Zf3d8ahg-376" value="写入ECC校验器缓冲区#1" style="rounded=1;whiteSpace=wrap;html=1;shadow=0;labelBackgroundColor=none;strokeWidth=1;fontFamily=Verdana;fontSize=8;align=center;fontStyle=1;fillColor=#E98FFF;strokeColor=none;" parent="1" vertex="1">
          <mxGeometry x="1739.5" y="760" width="50" height="40" as="geometry" />
        </mxCell>
        <mxCell id="uO17ehAxNxv0Zf3d8ahg-377" value="写入ECC校验器缓冲区#2" style="rounded=1;whiteSpace=wrap;html=1;shadow=0;labelBackgroundColor=none;strokeWidth=1;fontFamily=Verdana;fontSize=8;align=center;fontStyle=1;fillColor=#E98FFF;strokeColor=none;" parent="1" vertex="1">
          <mxGeometry x="1799.5" y="760" width="50" height="40" as="geometry" />
        </mxCell>
        <mxCell id="uO17ehAxNxv0Zf3d8ahg-378" value="写入ECC校验器缓冲区#3" style="rounded=1;whiteSpace=wrap;html=1;shadow=0;labelBackgroundColor=none;strokeWidth=1;fontFamily=Verdana;fontSize=8;align=center;fontStyle=1;fillColor=#E98FFF;strokeColor=none;" parent="1" vertex="1">
          <mxGeometry x="1859.5" y="760" width="50" height="40" as="geometry" />
        </mxCell>
        <mxCell id="uO17ehAxNxv0Zf3d8ahg-379" value="" style="endArrow=none;dashed=1;html=1;rounded=0;fontStyle=1" parent="1" edge="1">
          <mxGeometry width="50" height="50" relative="1" as="geometry">
            <mxPoint x="1919.5" y="779.71" as="sourcePoint" />
            <mxPoint x="1969.5" y="779.71" as="targetPoint" />
          </mxGeometry>
        </mxCell>
        <mxCell id="uO17ehAxNxv0Zf3d8ahg-380" value="写入ECC校验器缓冲区#7" style="rounded=1;whiteSpace=wrap;html=1;shadow=0;labelBackgroundColor=none;strokeWidth=1;fontFamily=Verdana;fontSize=8;align=center;fontStyle=1;fillColor=#E98FFF;strokeColor=none;" parent="1" vertex="1">
          <mxGeometry x="1979.5" y="760" width="50" height="40" as="geometry" />
        </mxCell>
        <mxCell id="uO17ehAxNxv0Zf3d8ahg-381" value="读取ECC存储页校验码" style="rounded=1;whiteSpace=wrap;html=1;shadow=0;labelBackgroundColor=none;strokeWidth=1;fontFamily=Verdana;fontSize=8;align=center;fontStyle=1;fillColor=#9e9eff;strokeColor=none;" parent="1" vertex="1">
          <mxGeometry x="1679.5" y="810" width="50" height="40" as="geometry" />
        </mxCell>
        <mxCell id="uO17ehAxNxv0Zf3d8ahg-382" value="写入ECC校验器校验码" style="rounded=1;whiteSpace=wrap;html=1;shadow=0;labelBackgroundColor=none;strokeWidth=1;fontFamily=Verdana;fontSize=8;align=center;fontStyle=1;fillColor=#9e9eff;strokeColor=none;" parent="1" vertex="1">
          <mxGeometry x="1739.5" y="810" width="50" height="40" as="geometry" />
        </mxCell>
        <mxCell id="uO17ehAxNxv0Zf3d8ahg-383" value="ECC校验器使能拉高" style="rounded=1;whiteSpace=wrap;html=1;shadow=0;labelBackgroundColor=none;strokeWidth=1;fontFamily=Verdana;fontSize=8;align=center;fontStyle=1;fillColor=#9e9eff;strokeColor=none;" parent="1" vertex="1">
          <mxGeometry x="1979.5" y="810" width="50" height="40" as="geometry" />
        </mxCell>
        <mxCell id="uO17ehAxNxv0Zf3d8ahg-384" value="发出握手信号&lt;br&gt;长度信息(8)" style="rounded=1;whiteSpace=wrap;html=1;shadow=0;labelBackgroundColor=none;strokeWidth=1;fontFamily=Verdana;fontSize=8;align=center;fontStyle=1;fillColor=#EA85F9;strokeColor=none;" parent="1" vertex="1">
          <mxGeometry x="1979.5" y="910" width="50" height="40" as="geometry" />
        </mxCell>
        <mxCell id="uO17ehAxNxv0Zf3d8ahg-385" value="刷新&lt;br&gt;数据包长度" style="rounded=1;whiteSpace=wrap;html=1;shadow=0;labelBackgroundColor=none;strokeWidth=1;fontFamily=Verdana;fontSize=8;align=center;fontStyle=1;fillColor=#d686ea;strokeColor=none;" parent="1" vertex="1">
          <mxGeometry x="1979.5" y="860" width="50" height="40" as="geometry" />
        </mxCell>
        <mxCell id="uO17ehAxNxv0Zf3d8ahg-387" value="" style="endArrow=none;html=1;rounded=0;strokeWidth=1;fontStyle=1" parent="1" edge="1">
          <mxGeometry width="50" height="50" relative="1" as="geometry">
            <mxPoint x="1675" y="950" as="sourcePoint" />
            <mxPoint x="1615" y="560" as="targetPoint" />
            <Array as="points">
              <mxPoint x="1674.5" y="705" />
              <mxPoint x="1614.5" y="705" />
            </Array>
          </mxGeometry>
        </mxCell>
        <mxCell id="uO17ehAxNxv0Zf3d8ahg-388" value="" style="endArrow=none;html=1;rounded=0;strokeWidth=1;fontStyle=1" parent="1" edge="1">
          <mxGeometry width="50" height="50" relative="1" as="geometry">
            <mxPoint x="2035" y="950" as="sourcePoint" />
            <mxPoint x="1975" y="560" as="targetPoint" />
            <Array as="points">
              <mxPoint x="2034.5" y="705" />
              <mxPoint x="1974.5" y="705" />
            </Array>
          </mxGeometry>
        </mxCell>
        <mxCell id="uO17ehAxNxv0Zf3d8ahg-389" value="轮询端口请求&lt;br&gt;(Port #1)" style="rounded=1;whiteSpace=wrap;html=1;shadow=0;labelBackgroundColor=none;strokeWidth=1;fontFamily=Verdana;fontSize=8;align=center;fontStyle=1;fillColor=#F8E1FE;strokeColor=none;" parent="1" vertex="1">
          <mxGeometry x="2210.5" y="560" width="50" height="40" as="geometry" />
        </mxCell>
        <mxCell id="uO17ehAxNxv0Zf3d8ahg-392" value="读取SRAM&lt;br&gt;页内容#0" style="rounded=1;whiteSpace=wrap;html=1;shadow=0;labelBackgroundColor=none;strokeWidth=1;fontFamily=Verdana;fontSize=8;align=center;fontStyle=1;fillColor=#E6E0FF;strokeColor=none;" parent="1" vertex="1">
          <mxGeometry x="2210.5" y="660" width="50" height="40" as="geometry" />
        </mxCell>
        <mxCell id="uO17ehAxNxv0Zf3d8ahg-393" value="刷新&lt;div&gt;(初始化)&lt;br&gt;数据包长度&lt;/div&gt;" style="rounded=1;whiteSpace=wrap;html=1;shadow=0;labelBackgroundColor=none;strokeWidth=1;fontFamily=Verdana;fontSize=8;align=center;fontStyle=1;fillColor=#EAD6F0;strokeColor=none;" parent="1" vertex="1">
          <mxGeometry x="2270.5" y="860" width="50" height="40" as="geometry" />
        </mxCell>
        <mxCell id="uO17ehAxNxv0Zf3d8ahg-394" value="读取SRAM&lt;br&gt;页内容#1" style="rounded=1;whiteSpace=wrap;html=1;shadow=0;labelBackgroundColor=none;strokeWidth=1;fontFamily=Verdana;fontSize=8;align=center;fontStyle=1;fillColor=#E6E0FF;strokeColor=none;" parent="1" vertex="1">
          <mxGeometry x="2270.5" y="660" width="50" height="40" as="geometry" />
        </mxCell>
        <mxCell id="uO17ehAxNxv0Zf3d8ahg-395" value="读取SRAM&lt;br&gt;页内容#2" style="rounded=1;whiteSpace=wrap;html=1;shadow=0;labelBackgroundColor=none;strokeWidth=1;fontFamily=Verdana;fontSize=8;align=center;fontStyle=1;fillColor=#E6E0FF;strokeColor=none;" parent="1" vertex="1">
          <mxGeometry x="2330.5" y="660" width="50" height="40" as="geometry" />
        </mxCell>
        <mxCell id="uO17ehAxNxv0Zf3d8ahg-396" value="读取SRAM&lt;br&gt;页内容#3" style="rounded=1;whiteSpace=wrap;html=1;shadow=0;labelBackgroundColor=none;strokeWidth=1;fontFamily=Verdana;fontSize=8;align=center;fontStyle=1;fillColor=#E6E0FF;strokeColor=none;" parent="1" vertex="1">
          <mxGeometry x="2390.5" y="660" width="50" height="40" as="geometry" />
        </mxCell>
        <mxCell id="uO17ehAxNxv0Zf3d8ahg-397" value="" style="endArrow=none;dashed=1;html=1;rounded=0;fontStyle=1" parent="1" edge="1">
          <mxGeometry width="50" height="50" relative="1" as="geometry">
            <mxPoint x="2450.5" y="679.71" as="sourcePoint" />
            <mxPoint x="2500.5" y="679.71" as="targetPoint" />
          </mxGeometry>
        </mxCell>
        <mxCell id="uO17ehAxNxv0Zf3d8ahg-475" style="edgeStyle=orthogonalEdgeStyle;rounded=0;orthogonalLoop=1;jettySize=auto;html=1;exitX=0.5;exitY=1;exitDx=0;exitDy=0;entryX=0.5;entryY=0;entryDx=0;entryDy=0;endArrow=blockThin;endFill=1;fontStyle=1" parent="1" source="uO17ehAxNxv0Zf3d8ahg-398" target="uO17ehAxNxv0Zf3d8ahg-406" edge="1">
          <mxGeometry relative="1" as="geometry" />
        </mxCell>
        <mxCell id="uO17ehAxNxv0Zf3d8ahg-398" value="得到SRAM&lt;br&gt;页内容#0" style="rounded=1;whiteSpace=wrap;html=1;shadow=0;labelBackgroundColor=none;strokeWidth=1;fontFamily=Verdana;fontSize=8;align=center;fontStyle=1;fillColor=#FFD6EB;strokeColor=none;" parent="1" vertex="1">
          <mxGeometry x="2270.5" y="710" width="50" height="40" as="geometry" />
        </mxCell>
        <mxCell id="uO17ehAxNxv0Zf3d8ahg-476" style="edgeStyle=orthogonalEdgeStyle;rounded=0;orthogonalLoop=1;jettySize=auto;html=1;exitX=0.5;exitY=1;exitDx=0;exitDy=0;entryX=0.5;entryY=0;entryDx=0;entryDy=0;endArrow=blockThin;endFill=1;fontStyle=1" parent="1" source="uO17ehAxNxv0Zf3d8ahg-399" target="uO17ehAxNxv0Zf3d8ahg-407" edge="1">
          <mxGeometry relative="1" as="geometry" />
        </mxCell>
        <mxCell id="uO17ehAxNxv0Zf3d8ahg-399" value="得到SRAM&lt;br&gt;页内容#1" style="rounded=1;whiteSpace=wrap;html=1;shadow=0;labelBackgroundColor=none;strokeWidth=1;fontFamily=Verdana;fontSize=8;align=center;fontStyle=1;fillColor=#FFD6EB;strokeColor=none;" parent="1" vertex="1">
          <mxGeometry x="2330.5" y="710" width="50" height="40" as="geometry" />
        </mxCell>
        <mxCell id="uO17ehAxNxv0Zf3d8ahg-477" style="edgeStyle=orthogonalEdgeStyle;rounded=0;orthogonalLoop=1;jettySize=auto;html=1;exitX=0.5;exitY=1;exitDx=0;exitDy=0;entryX=0.5;entryY=0;entryDx=0;entryDy=0;endArrow=blockThin;endFill=1;fontStyle=1" parent="1" source="uO17ehAxNxv0Zf3d8ahg-400" target="uO17ehAxNxv0Zf3d8ahg-408" edge="1">
          <mxGeometry relative="1" as="geometry" />
        </mxCell>
        <mxCell id="uO17ehAxNxv0Zf3d8ahg-400" value="得到SRAM&lt;br&gt;页内容#2" style="rounded=1;whiteSpace=wrap;html=1;shadow=0;labelBackgroundColor=none;strokeWidth=1;fontFamily=Verdana;fontSize=8;align=center;fontStyle=1;fillColor=#FFD6EB;strokeColor=none;" parent="1" vertex="1">
          <mxGeometry x="2390.5" y="710" width="50" height="40" as="geometry" />
        </mxCell>
        <mxCell id="uO17ehAxNxv0Zf3d8ahg-478" style="edgeStyle=orthogonalEdgeStyle;rounded=0;orthogonalLoop=1;jettySize=auto;html=1;exitX=0.5;exitY=1;exitDx=0;exitDy=0;entryX=0.5;entryY=0;entryDx=0;entryDy=0;endArrow=blockThin;endFill=1;fontStyle=1" parent="1" source="uO17ehAxNxv0Zf3d8ahg-401" target="uO17ehAxNxv0Zf3d8ahg-409" edge="1">
          <mxGeometry relative="1" as="geometry" />
        </mxCell>
        <mxCell id="uO17ehAxNxv0Zf3d8ahg-401" value="得到SRAM&lt;br&gt;页内容#3" style="rounded=1;whiteSpace=wrap;html=1;shadow=0;labelBackgroundColor=none;strokeWidth=1;fontFamily=Verdana;fontSize=8;align=center;fontStyle=1;fillColor=#FFD6EB;strokeColor=none;" parent="1" vertex="1">
          <mxGeometry x="2450.5" y="710" width="50" height="40" as="geometry" />
        </mxCell>
        <mxCell id="uO17ehAxNxv0Zf3d8ahg-402" value="" style="endArrow=none;dashed=1;html=1;rounded=0;fontStyle=1" parent="1" edge="1">
          <mxGeometry width="50" height="50" relative="1" as="geometry">
            <mxPoint x="2510.5" y="729.71" as="sourcePoint" />
            <mxPoint x="2560.5" y="729.71" as="targetPoint" />
          </mxGeometry>
        </mxCell>
        <mxCell id="uO17ehAxNxv0Zf3d8ahg-479" style="edgeStyle=orthogonalEdgeStyle;rounded=0;orthogonalLoop=1;jettySize=auto;html=1;exitX=0.5;exitY=1;exitDx=0;exitDy=0;entryX=0.5;entryY=0;entryDx=0;entryDy=0;endArrow=blockThin;endFill=1;fontStyle=1" parent="1" source="uO17ehAxNxv0Zf3d8ahg-403" target="uO17ehAxNxv0Zf3d8ahg-411" edge="1">
          <mxGeometry relative="1" as="geometry" />
        </mxCell>
        <mxCell id="uO17ehAxNxv0Zf3d8ahg-403" value="得到SRAM&lt;br&gt;页内容#k" style="rounded=1;whiteSpace=wrap;html=1;shadow=0;labelBackgroundColor=none;strokeWidth=1;fontFamily=Verdana;fontSize=8;align=center;fontStyle=1;fillColor=#FFD6EB;strokeColor=none;" parent="1" vertex="1">
          <mxGeometry x="2570.5" y="710" width="50" height="40" as="geometry" />
        </mxCell>
        <mxCell id="uO17ehAxNxv0Zf3d8ahg-404" value="刷新&lt;br&gt;数据包长度" style="rounded=1;whiteSpace=wrap;html=1;shadow=0;labelBackgroundColor=none;strokeWidth=1;fontFamily=Verdana;fontSize=8;align=center;fontStyle=1;fillColor=#EAD6F0;strokeColor=none;" parent="1" vertex="1">
          <mxGeometry x="2330.5" y="860" width="50" height="40" as="geometry" />
        </mxCell>
        <mxCell id="uO17ehAxNxv0Zf3d8ahg-405" value="" style="endArrow=none;dashed=1;html=1;rounded=0;fontStyle=1" parent="1" edge="1">
          <mxGeometry width="50" height="50" relative="1" as="geometry">
            <mxPoint x="2390.5" y="879.71" as="sourcePoint" />
            <mxPoint x="2560.5" y="880" as="targetPoint" />
          </mxGeometry>
        </mxCell>
        <mxCell id="uO17ehAxNxv0Zf3d8ahg-406" value="写入ECC校验器缓冲区#0" style="rounded=1;whiteSpace=wrap;html=1;shadow=0;labelBackgroundColor=none;strokeWidth=1;fontFamily=Verdana;fontSize=8;align=center;fontStyle=1;fillColor=#F5CCFF;strokeColor=none;" parent="1" vertex="1">
          <mxGeometry x="2270.5" y="760" width="50" height="40" as="geometry" />
        </mxCell>
        <mxCell id="uO17ehAxNxv0Zf3d8ahg-407" value="写入ECC校验器缓冲区#1" style="rounded=1;whiteSpace=wrap;html=1;shadow=0;labelBackgroundColor=none;strokeWidth=1;fontFamily=Verdana;fontSize=8;align=center;fontStyle=1;fillColor=#F5CCFF;strokeColor=none;" parent="1" vertex="1">
          <mxGeometry x="2330.5" y="760" width="50" height="40" as="geometry" />
        </mxCell>
        <mxCell id="uO17ehAxNxv0Zf3d8ahg-408" value="写入ECC校验器缓冲区#2" style="rounded=1;whiteSpace=wrap;html=1;shadow=0;labelBackgroundColor=none;strokeWidth=1;fontFamily=Verdana;fontSize=8;align=center;fontStyle=1;fillColor=#F5CCFF;strokeColor=none;" parent="1" vertex="1">
          <mxGeometry x="2390.5" y="760" width="50" height="40" as="geometry" />
        </mxCell>
        <mxCell id="uO17ehAxNxv0Zf3d8ahg-409" value="写入ECC校验器缓冲区#3" style="rounded=1;whiteSpace=wrap;html=1;shadow=0;labelBackgroundColor=none;strokeWidth=1;fontFamily=Verdana;fontSize=8;align=center;fontStyle=1;fillColor=#F5CCFF;strokeColor=none;" parent="1" vertex="1">
          <mxGeometry x="2450.5" y="760" width="50" height="40" as="geometry" />
        </mxCell>
        <mxCell id="uO17ehAxNxv0Zf3d8ahg-410" value="" style="endArrow=none;dashed=1;html=1;rounded=0;fontStyle=1" parent="1" edge="1">
          <mxGeometry width="50" height="50" relative="1" as="geometry">
            <mxPoint x="2510.5" y="779.71" as="sourcePoint" />
            <mxPoint x="2560.5" y="779.71" as="targetPoint" />
          </mxGeometry>
        </mxCell>
        <mxCell id="uO17ehAxNxv0Zf3d8ahg-411" value="写入ECC校验器缓冲区#k" style="rounded=1;whiteSpace=wrap;html=1;shadow=0;labelBackgroundColor=none;strokeWidth=1;fontFamily=Verdana;fontSize=8;align=center;fontStyle=1;fillColor=#F5CCFF;strokeColor=none;" parent="1" vertex="1">
          <mxGeometry x="2570.5" y="760" width="50" height="40" as="geometry" />
        </mxCell>
        <mxCell id="uO17ehAxNxv0Zf3d8ahg-412" value="读取ECC存储页校验码" style="rounded=1;whiteSpace=wrap;html=1;shadow=0;labelBackgroundColor=none;strokeWidth=1;fontFamily=Verdana;fontSize=8;align=center;fontStyle=1;fillColor=#C3C3FE;strokeColor=none;" parent="1" vertex="1">
          <mxGeometry x="2270.5" y="810" width="50" height="40" as="geometry" />
        </mxCell>
        <mxCell id="uO17ehAxNxv0Zf3d8ahg-413" value="写入ECC校验器校验码" style="rounded=1;whiteSpace=wrap;html=1;shadow=0;labelBackgroundColor=none;strokeWidth=1;fontFamily=Verdana;fontSize=8;align=center;fontStyle=1;fillColor=#C3C3FE;strokeColor=none;" parent="1" vertex="1">
          <mxGeometry x="2330.5" y="810" width="50" height="40" as="geometry" />
        </mxCell>
        <mxCell id="uO17ehAxNxv0Zf3d8ahg-414" value="ECC校验器使能拉高" style="rounded=1;whiteSpace=wrap;html=1;shadow=0;labelBackgroundColor=none;strokeWidth=1;fontFamily=Verdana;fontSize=8;align=center;fontStyle=1;fillColor=#C3C3FE;strokeColor=none;" parent="1" vertex="1">
          <mxGeometry x="2570.5" y="810" width="50" height="40" as="geometry" />
        </mxCell>
        <mxCell id="uO17ehAxNxv0Zf3d8ahg-415" value="发出握手信号&lt;br&gt;长度信息(k)&lt;br&gt;发出终止信号" style="rounded=1;whiteSpace=wrap;html=1;shadow=0;labelBackgroundColor=none;strokeWidth=1;fontFamily=Verdana;fontSize=8;align=center;fontStyle=1;fillColor=#F8DBFF;strokeColor=none;" parent="1" vertex="1">
          <mxGeometry x="2630.5" y="910" width="50" height="40" as="geometry" />
        </mxCell>
        <mxCell id="uO17ehAxNxv0Zf3d8ahg-416" value="数据包结束&lt;br&gt;长度(1→0)" style="rounded=1;whiteSpace=wrap;html=1;shadow=0;labelBackgroundColor=none;strokeWidth=1;fontFamily=Verdana;fontSize=8;align=center;fontStyle=1;fillColor=#EAD6F0;strokeColor=none;" parent="1" vertex="1">
          <mxGeometry x="2570.5" y="860" width="50" height="40" as="geometry" />
        </mxCell>
        <mxCell id="uO17ehAxNxv0Zf3d8ahg-417" value="" style="endArrow=none;html=1;rounded=0;strokeWidth=1;fontStyle=1" parent="1" edge="1">
          <mxGeometry width="50" height="50" relative="1" as="geometry">
            <mxPoint x="2265" y="950" as="sourcePoint" />
            <mxPoint x="2205" y="560" as="targetPoint" />
            <Array as="points">
              <mxPoint x="2264.5" y="705" />
              <mxPoint x="2204.5" y="705" />
            </Array>
          </mxGeometry>
        </mxCell>
        <mxCell id="uO17ehAxNxv0Zf3d8ahg-428" value="轮&lt;br style=&quot;font-size: 24px;&quot;&gt;询&lt;br style=&quot;font-size: 24px;&quot;&gt;端&lt;br style=&quot;font-size: 24px;&quot;&gt;口" style="rounded=0;whiteSpace=wrap;html=1;fillColor=none;strokeColor=none;fontSize=24;fontStyle=1" parent="1" vertex="1">
          <mxGeometry x="2090" y="625" width="50" height="220" as="geometry" />
        </mxCell>
        <mxCell id="uO17ehAxNxv0Zf3d8ahg-432" value="" style="shape=flexArrow;endArrow=classic;html=1;rounded=0;fontStyle=1" parent="1" edge="1">
          <mxGeometry width="50" height="50" relative="1" as="geometry">
            <mxPoint x="1610" y="930" as="sourcePoint" />
            <mxPoint x="1405" y="1100" as="targetPoint" />
            <Array as="points">
              <mxPoint x="1405" y="930" />
            </Array>
          </mxGeometry>
        </mxCell>
        <mxCell id="uO17ehAxNxv0Zf3d8ahg-433" value="" style="shape=flexArrow;endArrow=classic;html=1;rounded=0;fontStyle=1" parent="1" edge="1">
          <mxGeometry width="50" height="50" relative="1" as="geometry">
            <mxPoint x="2655" y="960" as="sourcePoint" />
            <mxPoint x="2100" y="1130" as="targetPoint" />
            <Array as="points">
              <mxPoint x="2655" y="1130" />
            </Array>
          </mxGeometry>
        </mxCell>
        <mxCell id="uO17ehAxNxv0Zf3d8ahg-436" value="&lt;span style=&quot;text-wrap: nowrap; background-color: rgb(255, 255, 255);&quot;&gt;&lt;font style=&quot;font-size: 8px;&quot;&gt;≥ 9clk&lt;/font&gt;&lt;/span&gt;" style="shape=crossbar;whiteSpace=wrap;html=1;rounded=1;verticalAlign=top;labelPosition=center;verticalLabelPosition=top;align=center;fontStyle=1" parent="1" vertex="1">
          <mxGeometry x="1259.5" y="1125" width="110.5" height="10" as="geometry" />
        </mxCell>
        <mxCell id="uO17ehAxNxv0Zf3d8ahg-440" value="&lt;span style=&quot;text-wrap: nowrap; background-color: rgb(255, 255, 255);&quot;&gt;&lt;font style=&quot;font-size: 8px;&quot;&gt;≥ 0clk&lt;/font&gt;&lt;/span&gt;" style="shape=crossbar;whiteSpace=wrap;html=1;rounded=1;verticalAlign=top;labelPosition=center;verticalLabelPosition=top;align=center;fontStyle=1" parent="1" vertex="1">
          <mxGeometry x="1679.5" y="1125" width="110.5" height="10" as="geometry" />
        </mxCell>
        <mxCell id="uO17ehAxNxv0Zf3d8ahg-444" value="" style="endArrow=blockThin;html=1;rounded=0;exitX=1;exitY=1;exitDx=0;exitDy=0;entryX=0;entryY=0;entryDx=0;entryDy=0;endFill=1;fontStyle=1" parent="1" source="uO17ehAxNxv0Zf3d8ahg-325" target="uO17ehAxNxv0Zf3d8ahg-334" edge="1">
          <mxGeometry width="50" height="50" relative="1" as="geometry">
            <mxPoint x="1430" y="770" as="sourcePoint" />
            <mxPoint x="1480" y="720" as="targetPoint" />
          </mxGeometry>
        </mxCell>
        <mxCell id="uO17ehAxNxv0Zf3d8ahg-445" value="" style="endArrow=blockThin;html=1;rounded=0;exitX=1;exitY=1;exitDx=0;exitDy=0;entryX=0;entryY=0;entryDx=0;entryDy=0;endFill=1;fontStyle=1" parent="1" source="uO17ehAxNxv0Zf3d8ahg-328" target="uO17ehAxNxv0Zf3d8ahg-335" edge="1">
          <mxGeometry width="50" height="50" relative="1" as="geometry">
            <mxPoint x="1319" y="710" as="sourcePoint" />
            <mxPoint x="1329" y="720" as="targetPoint" />
          </mxGeometry>
        </mxCell>
        <mxCell id="uO17ehAxNxv0Zf3d8ahg-446" value="" style="endArrow=blockThin;html=1;rounded=0;exitX=1;exitY=1;exitDx=0;exitDy=0;entryX=0;entryY=0;entryDx=0;entryDy=0;endFill=1;fontStyle=1" parent="1" source="uO17ehAxNxv0Zf3d8ahg-329" target="uO17ehAxNxv0Zf3d8ahg-336" edge="1">
          <mxGeometry width="50" height="50" relative="1" as="geometry">
            <mxPoint x="1379" y="710" as="sourcePoint" />
            <mxPoint x="1389" y="720" as="targetPoint" />
          </mxGeometry>
        </mxCell>
        <mxCell id="uO17ehAxNxv0Zf3d8ahg-447" value="" style="endArrow=blockThin;html=1;rounded=0;exitX=1;exitY=1;exitDx=0;exitDy=0;entryX=0;entryY=0;entryDx=0;entryDy=0;endFill=1;fontStyle=1" parent="1" source="uO17ehAxNxv0Zf3d8ahg-330" target="uO17ehAxNxv0Zf3d8ahg-337" edge="1">
          <mxGeometry width="50" height="50" relative="1" as="geometry">
            <mxPoint x="1439" y="710" as="sourcePoint" />
            <mxPoint x="1449" y="720" as="targetPoint" />
          </mxGeometry>
        </mxCell>
        <mxCell id="uO17ehAxNxv0Zf3d8ahg-448" value="" style="endArrow=blockThin;html=1;rounded=0;exitX=1;exitY=1;exitDx=0;exitDy=0;entryX=0;entryY=0;entryDx=0;entryDy=0;endFill=1;fontStyle=1" parent="1" source="uO17ehAxNxv0Zf3d8ahg-332" target="uO17ehAxNxv0Zf3d8ahg-339" edge="1">
          <mxGeometry width="50" height="50" relative="1" as="geometry">
            <mxPoint x="1449" y="720" as="sourcePoint" />
            <mxPoint x="1459" y="730" as="targetPoint" />
          </mxGeometry>
        </mxCell>
        <mxCell id="uO17ehAxNxv0Zf3d8ahg-449" value="" style="endArrow=blockThin;html=1;rounded=0;exitX=1;exitY=1;exitDx=0;exitDy=0;entryX=0;entryY=0;entryDx=0;entryDy=0;endFill=1;fontStyle=1" parent="1" source="uO17ehAxNxv0Zf3d8ahg-360" target="uO17ehAxNxv0Zf3d8ahg-367" edge="1">
          <mxGeometry width="50" height="50" relative="1" as="geometry">
            <mxPoint x="1459" y="730" as="sourcePoint" />
            <mxPoint x="1469" y="740" as="targetPoint" />
          </mxGeometry>
        </mxCell>
        <mxCell id="uO17ehAxNxv0Zf3d8ahg-450" value="" style="endArrow=blockThin;html=1;rounded=0;exitX=1;exitY=1;exitDx=0;exitDy=0;entryX=0;entryY=0;entryDx=0;entryDy=0;endFill=1;fontStyle=1" parent="1" source="uO17ehAxNxv0Zf3d8ahg-362" target="uO17ehAxNxv0Zf3d8ahg-368" edge="1">
          <mxGeometry width="50" height="50" relative="1" as="geometry">
            <mxPoint x="1469" y="740" as="sourcePoint" />
            <mxPoint x="1479" y="750" as="targetPoint" />
          </mxGeometry>
        </mxCell>
        <mxCell id="uO17ehAxNxv0Zf3d8ahg-451" value="" style="endArrow=blockThin;html=1;rounded=0;exitX=1;exitY=1;exitDx=0;exitDy=0;entryX=0;entryY=0;entryDx=0;entryDy=0;endFill=1;fontStyle=1" parent="1" source="uO17ehAxNxv0Zf3d8ahg-363" target="uO17ehAxNxv0Zf3d8ahg-369" edge="1">
          <mxGeometry width="50" height="50" relative="1" as="geometry">
            <mxPoint x="1479" y="750" as="sourcePoint" />
            <mxPoint x="1489" y="760" as="targetPoint" />
          </mxGeometry>
        </mxCell>
        <mxCell id="uO17ehAxNxv0Zf3d8ahg-452" value="" style="endArrow=blockThin;html=1;rounded=0;exitX=1;exitY=1;exitDx=0;exitDy=0;entryX=0;entryY=0;entryDx=0;entryDy=0;endFill=1;fontStyle=1" parent="1" source="uO17ehAxNxv0Zf3d8ahg-364" target="uO17ehAxNxv0Zf3d8ahg-370" edge="1">
          <mxGeometry width="50" height="50" relative="1" as="geometry">
            <mxPoint x="1800" y="710" as="sourcePoint" />
            <mxPoint x="1810" y="720" as="targetPoint" />
          </mxGeometry>
        </mxCell>
        <mxCell id="uO17ehAxNxv0Zf3d8ahg-453" value="" style="endArrow=blockThin;html=1;rounded=0;exitX=1;exitY=1;exitDx=0;exitDy=0;entryX=0;entryY=0;entryDx=0;entryDy=0;endFill=1;fontStyle=1" parent="1" source="uO17ehAxNxv0Zf3d8ahg-366" target="uO17ehAxNxv0Zf3d8ahg-372" edge="1">
          <mxGeometry width="50" height="50" relative="1" as="geometry">
            <mxPoint x="1810" y="720" as="sourcePoint" />
            <mxPoint x="1820" y="730" as="targetPoint" />
          </mxGeometry>
        </mxCell>
        <mxCell id="uO17ehAxNxv0Zf3d8ahg-454" value="" style="endArrow=blockThin;html=1;rounded=0;exitX=1;exitY=1;exitDx=0;exitDy=0;entryX=0;entryY=0;entryDx=0;entryDy=0;endFill=1;fontStyle=1" parent="1" source="uO17ehAxNxv0Zf3d8ahg-392" target="uO17ehAxNxv0Zf3d8ahg-398" edge="1">
          <mxGeometry width="50" height="50" relative="1" as="geometry">
            <mxPoint x="1820" y="730" as="sourcePoint" />
            <mxPoint x="1830" y="740" as="targetPoint" />
          </mxGeometry>
        </mxCell>
        <mxCell id="uO17ehAxNxv0Zf3d8ahg-456" value="" style="endArrow=blockThin;html=1;rounded=0;exitX=1;exitY=1;exitDx=0;exitDy=0;entryX=0;entryY=0;entryDx=0;entryDy=0;endFill=1;fontStyle=1" parent="1" source="uO17ehAxNxv0Zf3d8ahg-394" target="uO17ehAxNxv0Zf3d8ahg-399" edge="1">
          <mxGeometry width="50" height="50" relative="1" as="geometry">
            <mxPoint x="2271" y="710" as="sourcePoint" />
            <mxPoint x="2281" y="720" as="targetPoint" />
          </mxGeometry>
        </mxCell>
        <mxCell id="uO17ehAxNxv0Zf3d8ahg-457" value="" style="endArrow=blockThin;html=1;rounded=0;exitX=1;exitY=1;exitDx=0;exitDy=0;entryX=0;entryY=0;entryDx=0;entryDy=0;endFill=1;fontStyle=1" parent="1" source="uO17ehAxNxv0Zf3d8ahg-395" target="uO17ehAxNxv0Zf3d8ahg-400" edge="1">
          <mxGeometry width="50" height="50" relative="1" as="geometry">
            <mxPoint x="2281" y="720" as="sourcePoint" />
            <mxPoint x="2291" y="730" as="targetPoint" />
          </mxGeometry>
        </mxCell>
        <mxCell id="uO17ehAxNxv0Zf3d8ahg-458" value="" style="endArrow=blockThin;html=1;rounded=0;exitX=1;exitY=1;exitDx=0;exitDy=0;entryX=0;entryY=0;entryDx=0;entryDy=0;endFill=1;fontStyle=1" parent="1" source="uO17ehAxNxv0Zf3d8ahg-396" target="uO17ehAxNxv0Zf3d8ahg-401" edge="1">
          <mxGeometry width="50" height="50" relative="1" as="geometry">
            <mxPoint x="2291" y="730" as="sourcePoint" />
            <mxPoint x="2301" y="740" as="targetPoint" />
          </mxGeometry>
        </mxCell>
        <mxCell id="uO17ehAxNxv0Zf3d8ahg-460" value="读取SRAM&lt;br&gt;页内容#k" style="rounded=1;whiteSpace=wrap;html=1;shadow=0;labelBackgroundColor=none;strokeWidth=1;fontFamily=Verdana;fontSize=8;align=center;fontStyle=1;fillColor=#DDD6FE;strokeColor=none;" parent="1" vertex="1">
          <mxGeometry x="2510" y="660" width="50" height="40" as="geometry" />
        </mxCell>
        <mxCell id="uO17ehAxNxv0Zf3d8ahg-461" value="" style="endArrow=blockThin;html=1;rounded=0;exitX=1;exitY=1;exitDx=0;exitDy=0;entryX=0;entryY=0;entryDx=0;entryDy=0;endFill=1;fontStyle=1" parent="1" source="uO17ehAxNxv0Zf3d8ahg-460" target="uO17ehAxNxv0Zf3d8ahg-403" edge="1">
          <mxGeometry width="50" height="50" relative="1" as="geometry">
            <mxPoint x="2451" y="710" as="sourcePoint" />
            <mxPoint x="2461" y="720" as="targetPoint" />
          </mxGeometry>
        </mxCell>
        <mxCell id="nSxpl0Ap6zL9CHNPe53o-1" value="读&lt;br&gt;取&lt;br&gt;请&lt;br&gt;求" style="rounded=0;whiteSpace=wrap;html=1;fillColor=none;strokeColor=none;fontSize=24;fontStyle=1" parent="1" vertex="1">
          <mxGeometry x="2120" y="685" width="50" height="220" as="geometry" />
        </mxCell>
        <mxCell id="IVNIzT1IpHDhT-juqoZ8-2" value="rd_sop&lt;div&gt;拉低&lt;/div&gt;" style="rounded=1;whiteSpace=wrap;html=1;shadow=0;labelBackgroundColor=none;strokeWidth=1;fontFamily=Verdana;fontSize=8;align=center;fillColor=#addcff;strokeColor=none;fontStyle=1" parent="1" vertex="1">
          <mxGeometry x="1259.5" y="1060" width="50" height="40" as="geometry" />
        </mxCell>
        <mxCell id="IVNIzT1IpHDhT-juqoZ8-3" value="rd_eop&lt;div&gt;拉低&lt;/div&gt;" style="rounded=1;whiteSpace=wrap;html=1;shadow=0;labelBackgroundColor=none;strokeWidth=1;fontFamily=Verdana;fontSize=8;align=center;fillColor=#addcff;gradientColor=none;strokeColor=none;fontStyle=1" parent="1" vertex="1">
          <mxGeometry x="2100.5" y="1060" width="50" height="40" as="geometry" />
        </mxCell>
        <mxCell id="IVNIzT1IpHDhT-juqoZ8-9" value="读取端口N&lt;br&gt;处理队列&lt;br&gt;头地址" style="rounded=1;whiteSpace=wrap;html=1;shadow=0;labelBackgroundColor=none;strokeWidth=1;fontFamily=Verdana;fontSize=8;align=center;fontStyle=1;fillColor=#d5adff;strokeColor=none;" parent="1" vertex="1">
          <mxGeometry x="1619.5" y="610" width="50" height="40" as="geometry" />
        </mxCell>
        <mxCell id="IVNIzT1IpHDhT-juqoZ8-10" value="读取端口1&lt;br&gt;处理队列&lt;br&gt;头地址" style="rounded=1;whiteSpace=wrap;html=1;shadow=0;labelBackgroundColor=none;strokeWidth=1;fontFamily=Verdana;fontSize=8;align=center;fontStyle=1;fillColor=#EFE0FF;strokeColor=none;" parent="1" vertex="1">
          <mxGeometry x="2210.5" y="610" width="50" height="40" as="geometry" />
        </mxCell>
        <mxCell id="IVNIzT1IpHDhT-juqoZ8-11" value="更新头地址&lt;br&gt;为跳转表&lt;br&gt;下页地址" style="rounded=1;whiteSpace=wrap;html=1;shadow=0;labelBackgroundColor=none;strokeWidth=1;fontFamily=Verdana;fontSize=8;align=center;fontStyle=1;fillColor=#d5adff;strokeColor=none;" parent="1" vertex="1">
          <mxGeometry x="1679.5" y="610" width="50" height="40" as="geometry" />
        </mxCell>
        <mxCell id="IVNIzT1IpHDhT-juqoZ8-12" value="更新头地址&lt;br&gt;为跳转表&lt;br&gt;下页地址" style="rounded=1;whiteSpace=wrap;html=1;shadow=0;labelBackgroundColor=none;strokeWidth=1;fontFamily=Verdana;fontSize=8;align=center;fontStyle=1;fillColor=#EFE0FF;strokeColor=none;" parent="1" vertex="1">
          <mxGeometry x="2270.5" y="610" width="50" height="40" as="geometry" />
        </mxCell>
        <mxCell id="-BsYHrq-ux0a8azyBXrp-1" value="" style="endArrow=none;dashed=1;html=1;dashPattern=1 3;strokeWidth=1;rounded=0;fontStyle=1;entryX=0.5;entryY=1;entryDx=0;entryDy=0;strokeColor=none;exitX=0.5;exitY=0;exitDx=0;exitDy=0;" edge="1" parent="1" source="uO17ehAxNxv0Zf3d8ahg-324" target="uO17ehAxNxv0Zf3d8ahg-326">
          <mxGeometry width="50" height="50" relative="1" as="geometry">
            <mxPoint x="1340" y="600" as="sourcePoint" />
            <mxPoint x="1340.5" y="800" as="targetPoint" />
          </mxGeometry>
        </mxCell>
      </root>
    </mxGraphModel>
  </diagram>
</mxfile>
